<svg width="20" height="20" viewBox="0 0 18 18" fill="none" xmlns="http://www.w3.org/2000/svg">
<path d="M8.99996 15.6667C10.7681 15.6667 12.4638 14.9643 13.714 13.714C14.9642 12.4638 15.6666 10.7681 15.6666 9C15.6666 7.23189 14.9642 5.5362 13.714 4.28596C12.4638 3.03571 10.7681 2.33333 8.99996 2.33333C7.23185 2.33333 5.53616 3.03571 4.28591 4.28596C3.03567 5.5362 2.33329 7.23189 2.33329 9C2.33329 10.7681 3.03567 12.4638 4.28591 13.714C5.53616 14.9643 7.23185 15.6667 8.99996 15.6667ZM8.99996 17.3333C4.39746 17.3333 0.666626 13.6025 0.666626 9C0.666626 4.3975 4.39746 0.666668 8.99996 0.666668C13.6025 0.666668 17.3333 4.3975 17.3333 9C17.3333 13.6025 13.6025 17.3333 8.99996 17.3333ZM8.16663 12.3333H9.83329V14H8.16663V12.3333ZM8.16663 4H9.83329V10.6667H8.16663V4Z" fill="#FF0000"/>
<path d="M8.99996 15.6667C10.7681 15.6667 12.4638 14.9643 13.714 13.714C14.9642 12.4638 15.6666 10.7681 15.6666 9C15.6666 7.23189 14.9642 5.5362 13.714 4.28596C12.4638 3.03571 10.7681 2.33333 8.99996 2.33333C7.23185 2.33333 5.53616 3.03571 4.28591 4.28596C3.03567 5.5362 2.33329 7.23189 2.33329 9C2.33329 10.7681 3.03567 12.4638 4.28591 13.714C5.53616 14.9643 7.23185 15.6667 8.99996 15.6667ZM8.99996 17.3333C4.39746 17.3333 0.666626 13.6025 0.666626 9C0.666626 4.3975 4.39746 0.666668 8.99996 0.666668C13.6025 0.666668 17.3333 4.3975 17.3333 9C17.3333 13.6025 13.6025 17.3333 8.99996 17.3333ZM8.16663 12.3333H9.83329V14H8.16663V12.3333ZM8.16663 4H9.83329V10.6667H8.16663V4Z" fill="black" fill-opacity="0.2"/>
</svg>
